# xmcd CD database file generated by OrangeCD 5.2
#
# Track frame offsets:
#	182
#	17112
#	36617
#	57207
#	76157
#	97552
#	114872
#	133442
#
# Disc length: 2035 seconds
#
# Revision: 0
# Processed by: cddbd v1.5.1PL2 Copyright (c) Steve Scherf et al.
# Submitted via: OrangeCD 5.2
#
DISCID=5e07f108
DTITLE=Joe Cocker - No Ordinary World - 8 Track Sampler
DYEAR=1999
DGENRE=Pop-Folk
TTITLE0=First We Take Manhattan
TTITLE1=Different Roads (radio edit)
TTITLE2=My Father's Son
TTITLE3=While You See A Chance
TTITLE4=She Believes In Me
TTITLE5=No Ordinary World
TTITLE6=Ain't Gonna Cry Again
TTITLE7=Love To Lean On
EXTD=
EXTT0=
EXTT1=
EXTT2=
EXTT3=
EXTT4=
EXTT5=
EXTT6=
EXTT7=
PLAYORDER=
